<?xml version="1.0" encoding="UTF-8" standalone="no"?>
<!-- Created with Inkscape (http://www.inkscape.org/) -->
<svg
   xmlns:svg="http://www.w3.org/2000/svg"
   xmlns="http://www.w3.org/2000/svg"
   xmlns:inkscape="http://www.inkscape.org/namespaces/inkscape"
   version="1.0"
   width="100%"
   height="100%"
   viewBox="-6 -6 72.478721 72.966597"
   id="svg2">
  <defs
     id="defs12">
    <filter
       id="filter4151">
      <feGaussianBlur
         id="feGaussianBlur4153"
         stdDeviation="0.43858541"
         inkscape:collect="always" />
    </filter>
    <filter
       id="filter4373">
      <feGaussianBlur
         id="feGaussianBlur4375"
         stdDeviation="2.0008394"
         inkscape:collect="always" />
    </filter>
    <filter
       id="filter4401">
      <feGaussianBlur
         id="feGaussianBlur4403"
         stdDeviation="0.10914911"
         inkscape:collect="always" />
    </filter>
  </defs>
  <path
     d="M 16.204864,18.431513 L 14.795832,18.107846 L 14.346941,19.482119 L 13.028127,18.889783 L 12.319754,20.150076 L 11.14184,19.311834 L 10.201206,20.409713 L 9.2094587,19.357778 L 8.0727137,20.251054 L 7.3052446,19.025851 L 6.0160723,19.680194 L 5.5023751,18.328808 L 4.1103179,18.719073 L 3.8701337,17.293436 L 2.4286874,17.404626 L 2.4712464,15.959524 L 1.035805,15.787365 L 1.3594717,14.378333 L -0.014801594,13.929441 L 0.57753443,12.610628 L -0.6827582,11.902254 L 0.15548402,10.72434 L -0.9423956,9.7837068 L 0.10953962,8.7919592 L -0.78373609,7.6552141 L 0.44146687,6.887745 L -0.21287685,5.5985728 L 1.13851,5.0848756 L 0.74824432,3.6928183 L 2.173882,3.4526342 L 2.0626921,2.0111879 L 3.5077941,2.0537469 L 3.6799529,0.61830547 L 5.0889848,0.94197217 L 5.5378764,-0.43230114 L 6.8566899,0.16003489 L 7.5650636,-1.1002577 L 8.7429774,-0.26201552 L 9.6836108,-1.3598951 L 10.675358,-0.30795992 L 11.812103,-1.2012356 L 12.579573,0.023967327 L 13.868745,-0.63037639 L 14.382442,0.72101043 L 15.774499,0.33074477 L 16.014683,1.7563824 L 17.45613,1.6451925 L 17.413571,3.0902945 L 18.849012,3.2624533 L 18.525345,4.6714853 L 19.899619,5.1203768 L 19.307283,6.4391904 L 20.567575,7.147564 L 19.729333,8.3254779 L 20.827213,9.2661112 L 19.775277,10.257859 L 20.668553,11.394604 L 19.44335,12.162073 L 20.097694,13.451245 L 18.746307,13.964942 L 19.136573,15.357 L 17.710935,15.597184 L 17.822125,17.03863 L 16.377023,16.996071 L 16.204864,18.431513 z"
     transform="matrix(2.770455,0,0,2.7928659,2.6943645,3.8815048)"
     id="path3173"
     style="fill:#dbdee3;fill-opacity:1;stroke:#000000;stroke-width:0.06003657;stroke-linejoin:miter;stroke-miterlimit:4;stroke-dasharray:none;stroke-opacity:1;filter:url(#filter4401)" />
  <g
     transform="matrix(0.8554328,0,0,0.8554328,4.2423791,4.4932831)"
     id="g4187"
     style="fill:#000000;fill-opacity:1;filter:url(#filter4373)">
    <path
       d="M 18.945,12.405 C 18.945,8.821 19.906,6.871 25.213,5.942 C 28.816,5.311 33.435,5.232 37.744,5.942 C 41.147,6.504 44.013,9.039 44.013,12.405 L 44.013,24.23 C 44.013,27.698 41.232,30.54 37.744,30.54 L 25.212,30.54 C 20.96,30.54 17.375,34.166 17.375,38.265 L 17.375,43.939 L 13.066,43.939 C 9.422,43.939 7.3,41.311 6.408,37.634 C 5.206,32.694 5.257,29.75 6.408,25.019 C 7.406,20.892 10.596,18.714 14.241,18.714 L 18.944,18.714 L 31.48,18.714 L 31.48,17.135 L 18.945,17.135 L 18.945,12.405 L 18.945,12.405 z"
       id="path4189"
       style="fill:#000000;fill-opacity:1" />
    <path
       d="M 44.012,50.248 C 44.012,53.832 40.901,55.646 37.743,56.553 C 32.994,57.918 29.182,57.709 25.212,56.553 C 21.897,55.587 18.944,53.614 18.944,50.248 L 18.944,38.422 C 18.944,35.02 21.781,32.112 25.212,32.112 L 37.743,32.112 C 41.917,32.112 45.58,28.506 45.58,24.23 L 45.58,18.714 L 50.279,18.714 C 53.927,18.714 55.646,21.425 56.547,25.019 C 57.8,30.01 57.856,33.743 56.547,37.634 C 55.279,41.412 53.923,43.939 50.279,43.939 L 44.011,43.939 L 31.48,43.939 L 31.48,45.517 L 44.011,45.517 L 44.011,50.248 L 44.012,50.248 z"
       id="path4191"
       style="fill:#000000;fill-opacity:1" />
    <path
       d="M 22.079,11.62 C 22.079,10.31 23.128,9.252 24.429,9.252 C 25.724,9.252 26.778,10.31 26.778,11.62 C 26.778,12.925 25.724,13.983 24.429,13.983 C 23.128,13.983 22.079,12.925 22.079,11.62 z"
       id="path4193"
       style="fill:#000000;fill-opacity:1" />
    <path
       d="M 36.179,51.033 C 36.179,49.728 37.233,48.669 38.529,48.669 C 39.828,48.669 40.879,49.729 40.879,51.033 C 40.879,52.342 39.828,53.4 38.529,53.4 C 37.232,53.4 36.179,52.342 36.179,51.033 z"
       id="path4195"
       style="fill:#000000;fill-opacity:1" />
  </g>
  <g
     transform="matrix(0.8554328,0,0,0.8554328,3.3087254,3.5408238)"
     id="g2539">
    <path
       d="M 18.945,12.405 C 18.945,8.821 19.906,6.871 25.213,5.942 C 28.816,5.311 33.435,5.232 37.744,5.942 C 41.147,6.504 44.013,9.039 44.013,12.405 L 44.013,24.23 C 44.013,27.698 41.232,30.54 37.744,30.54 L 25.212,30.54 C 20.96,30.54 17.375,34.166 17.375,38.265 L 17.375,43.939 L 13.066,43.939 C 9.422,43.939 7.3,41.311 6.408,37.634 C 5.206,32.694 5.257,29.75 6.408,25.019 C 7.406,20.892 10.596,18.714 14.241,18.714 L 18.944,18.714 L 31.48,18.714 L 31.48,17.135 L 18.945,17.135 L 18.945,12.405 L 18.945,12.405 z"
       id="path2541"
       style="fill:#366994" />
    <path
       d="M 44.012,50.248 C 44.012,53.832 40.901,55.646 37.743,56.553 C 32.994,57.918 29.182,57.709 25.212,56.553 C 21.897,55.587 18.944,53.614 18.944,50.248 L 18.944,38.422 C 18.944,35.02 21.781,32.112 25.212,32.112 L 37.743,32.112 C 41.917,32.112 45.58,28.506 45.58,24.23 L 45.58,18.714 L 50.279,18.714 C 53.927,18.714 55.646,21.425 56.547,25.019 C 57.8,30.01 57.856,33.743 56.547,37.634 C 55.279,41.412 53.923,43.939 50.279,43.939 L 44.011,43.939 L 31.48,43.939 L 31.48,45.517 L 44.011,45.517 L 44.011,50.248 L 44.012,50.248 z"
       id="path2543"
       style="fill:#e7b530" />
    <path
       d="M 22.079,11.62 C 22.079,10.31 23.128,9.252 24.429,9.252 C 25.724,9.252 26.778,10.31 26.778,11.62 C 26.778,12.925 25.724,13.983 24.429,13.983 C 23.128,13.983 22.079,12.925 22.079,11.62 z"
       id="path2545"
       style="fill:#ffffff" />
    <path
       d="M 36.179,51.033 C 36.179,49.728 37.233,48.669 38.529,48.669 C 39.828,48.669 40.879,49.729 40.879,51.033 C 40.879,52.342 39.828,53.4 38.529,53.4 C 37.232,53.4 36.179,52.342 36.179,51.033 z"
       id="path2547"
       style="fill:#ffffff" />
  </g>
</svg>
