<?xml version="1.0" encoding="UTF-8" standalone="no"?>
<!DOCTYPE svg PUBLIC "-//W3C//DTD SVG 1.1 Tiny//EN" "http://www.w3.org/Graphics/SVG/1.1/DTD/svg11-tiny.dtd">
<svg xmlns="http://www.w3.org/2000/svg" baseProfile="tiny" height="100%" version="1.0" viewBox="-6 -6 72.478721 72.966597" width="100%">
<rect height="45.95948" ry="4.8960271" style="fill:#dbdee3;fill-opacity:1;stroke:none;stroke-width:0.46700001;stroke-linejoin:miter;stroke-miterlimit:4;stroke-dasharray:none;stroke-opacity:1" width="32.692825" x="13.347205" y="7.9773674"/>
<g transform="matrix(1.0999298,0,0,1.0999298,13.25769,7.7497402)">
<g>
<path d="M 4.368,7.895 L 25.908,7.895" style="fill:none;stroke:#1e3842;stroke-linecap:round"/>
<path d="M 4.368,13.752 L 25.908,13.752" style="fill:none;stroke:#1e3842;stroke-linecap:round"/>
<path d="M 4.368,19.609 L 25.908,19.609" style="fill:none;stroke:#1e3842;stroke-linecap:round"/>
<path d="M 4.368,25.466 L 25.908,25.466" style="fill:none;stroke:#1e3842;stroke-linecap:round"/>
<path d="M 4.368,31.323 L 13.426,31.323" style="fill:none;stroke:#1e3842;stroke-linecap:round"/>
</g>
<path d="M 0.808,1.395 L 0.741,4.772 L 3.848,0.449 L 0.876,1.125" style="fill:#1e3842"/>
<path d="M 28.703,37.665 L 28.096,40.097 L 25.259,41.381 L 28.838,41.11 L 29.379,36.314 L 28.703,37.665 z" style="fill:#1e3842"/>
<path d="M 29.527,36.878 C 29.527,42.308 29.093,41.796 24.05,41.796 L 6.775,41.796 C 1.732,41.796 1.558,42.31 1.558,36.878 L 1.558,6.738 C 1.558,1.306 1.733,1.468 6.775,1.468 L 24.05,1.468 C 29.096,1.468 29.529,1.306 29.529,6.738 L 29.529,36.878 L 29.527,36.878 z" style="fill:none;stroke:#1e3842"/>
<path d="M 28.471,35.909 C 28.471,41.34 28.036,40.828 22.993,40.828 L 5.718,40.828 C 0.675,40.828 0.5,41.342 0.5,35.909 L 0.5,5.769 C 0.5,0.337 0.675,0.5 5.718,0.5 L 22.991,0.5 C 28.036,0.5 28.47,0.337 28.47,5.769 L 28.47,35.909 L 28.471,35.909 z" style="fill:none;stroke:#4f849f"/>
<path d="M 3.715,6.858 L 25.254,6.858" style="fill:none;stroke:#4f849f;stroke-linecap:round"/>
<path d="M 3.715,12.715 L 25.254,12.715" style="fill:none;stroke:#4f849f;stroke-linecap:round"/>
<path d="M 3.715,18.573 L 25.254,18.573" style="fill:none;stroke:#4f849f;stroke-linecap:round"/>
<path d="M 3.715,24.43 L 25.254,24.43" style="fill:none;stroke:#4f849f;stroke-linecap:round"/>
<path d="M 3.715,30.287 L 12.774,30.287" style="fill:none;stroke:#4f849f;stroke-linecap:round"/>
</g>
<g transform="matrix(0.7310116,0,0,0.7310116,-2.9704216,14.249609)">
<g style="fill:#000000;fill-opacity:1" transform="matrix(1.6176532,0,0,1.6176532,-16.752074,-28.661319)">
<path d="M 25.021688,28.971407 C 25.021688,26.732411 25.622043,25.514208 28.937431,24.933843 C 31.188297,24.539645 34.073878,24.490292 36.765795,24.933843 C 38.891717,25.284936 40.682164,26.8686 40.682164,28.971407 L 40.682164,36.358719 C 40.682164,38.525247 38.944818,40.300701 36.765795,40.300701 L 28.936807,40.300701 C 26.280498,40.300701 24.040878,42.565935 24.040878,45.126661 L 24.040878,48.671321 L 21.34896,48.671321 C 19.072481,48.671321 17.746826,47.029558 17.189575,44.732463 C 16.438662,41.646347 16.470523,39.807172 17.189575,36.851623 C 17.813046,34.273404 19.805902,32.912764 22.083006,32.912764 L 25.021063,32.912764 L 32.85255,32.912764 L 32.85255,31.926332 L 25.021688,31.926332 L 25.021688,28.971407 L 25.021688,28.971407 z" style="fill:#000000;fill-opacity:1;stroke:none;stroke-width:0.39300001;stroke-miterlimit:4;stroke-dasharray:none;stroke-opacity:1"/>
<path d="M 40.681539,52.612679 C 40.681539,54.851674 38.738036,55.984916 36.76517,56.551537 C 33.798376,57.404279 31.416944,57.273713 28.936807,56.551537 C 26.86586,55.948058 25.021063,54.715485 25.021063,52.612679 L 25.021063,45.224742 C 25.021063,43.099445 26.793393,41.28276 28.936807,41.28276 L 36.76517,41.28276 C 39.372751,41.28276 41.661099,39.030021 41.661099,36.358719 L 41.661099,32.912764 L 44.596658,32.912764 C 46.875636,32.912764 47.949529,34.60638 48.512402,36.851623 C 49.295175,39.969599 49.33016,42.301678 48.512402,44.732463 C 47.720257,47.092654 46.873137,48.671321 44.596658,48.671321 L 40.680914,48.671321 L 32.85255,48.671321 L 32.85255,49.657129 L 40.680914,49.657129 L 40.680914,52.612679 L 40.681539,52.612679 z" style="fill:#000000;fill-opacity:1;stroke:none;stroke-width:0.39300001;stroke-miterlimit:4;stroke-dasharray:none;stroke-opacity:1"/>
<path d="M 26.979559,28.481002 C 26.979559,27.662619 27.634891,27.001666 28.447651,27.001666 C 29.256663,27.001666 29.915118,27.662619 29.915118,28.481002 C 29.915118,29.296261 29.256663,29.957215 28.447651,29.957215 C 27.634891,29.957215 26.979559,29.296261 26.979559,28.481002 z" style="fill:#000000;fill-opacity:1;stroke:none;stroke-width:0.09284162;stroke-miterlimit:4;stroke-dasharray:none;stroke-opacity:1"/>
<path d="M 35.788109,53.103084 C 35.788109,52.287824 36.446563,51.626246 37.2562,51.626246 C 38.067711,51.626246 38.724292,52.288449 38.724292,53.103084 C 38.724292,53.920842 38.067711,54.581795 37.2562,54.581795 C 36.445939,54.581795 35.788109,53.920842 35.788109,53.103084 z" style="fill:#000000;fill-opacity:1;stroke:none;stroke-width:0.09284162;stroke-miterlimit:4;stroke-dasharray:none;stroke-opacity:1"/>
</g>
<g transform="matrix(1.6176532,0,0,1.6176532,-17.959724,-29.804787)">
<path d="M 25.021688,28.971407 C 25.021688,26.732411 25.622043,25.514208 28.937431,24.933843 C 31.188297,24.539645 34.073878,24.490292 36.765795,24.933843 C 38.891717,25.284936 40.682164,26.8686 40.682164,28.971407 L 40.682164,36.358719 C 40.682164,38.525247 38.944818,40.300701 36.765795,40.300701 L 28.936807,40.300701 C 26.280498,40.300701 24.040878,42.565935 24.040878,45.126661 L 24.040878,48.671321 L 21.34896,48.671321 C 19.072481,48.671321 17.746826,47.029558 17.189575,44.732463 C 16.438662,41.646347 16.470523,39.807172 17.189575,36.851623 C 17.813046,34.273404 19.805902,32.912764 22.083006,32.912764 L 25.021063,32.912764 L 32.85255,32.912764 L 32.85255,31.926332 L 25.021688,31.926332 L 25.021688,28.971407 L 25.021688,28.971407 z" style="fill:#366994;stroke:none;stroke-width:0.39300001;stroke-miterlimit:4;stroke-dasharray:none;stroke-opacity:1"/>
<path d="M 40.681539,52.612679 C 40.681539,54.851674 38.738036,55.984916 36.76517,56.551537 C 33.798376,57.404279 31.416944,57.273713 28.936807,56.551537 C 26.86586,55.948058 25.021063,54.715485 25.021063,52.612679 L 25.021063,45.224742 C 25.021063,43.099445 26.793393,41.28276 28.936807,41.28276 L 36.76517,41.28276 C 39.372751,41.28276 41.661099,39.030021 41.661099,36.358719 L 41.661099,32.912764 L 44.596658,32.912764 C 46.875636,32.912764 47.949529,34.60638 48.512402,36.851623 C 49.295175,39.969599 49.33016,42.301678 48.512402,44.732463 C 47.720257,47.092654 46.873137,48.671321 44.596658,48.671321 L 40.680914,48.671321 L 32.85255,48.671321 L 32.85255,49.657129 L 40.680914,49.657129 L 40.680914,52.612679 L 40.681539,52.612679 z" style="fill:#e7b530;stroke:none;stroke-width:0.39300001;stroke-miterlimit:4;stroke-dasharray:none;stroke-opacity:1"/>
<path d="M 26.979559,28.481002 C 26.979559,27.662619 27.634891,27.001666 28.447651,27.001666 C 29.256663,27.001666 29.915118,27.662619 29.915118,28.481002 C 29.915118,29.296261 29.256663,29.957215 28.447651,29.957215 C 27.634891,29.957215 26.979559,29.296261 26.979559,28.481002 z" style="fill:#ffffff;stroke:none;stroke-width:0.09284162;stroke-miterlimit:4;stroke-dasharray:none;stroke-opacity:1"/>
<path d="M 35.788109,53.103084 C 35.788109,52.287824 36.446563,51.626246 37.2562,51.626246 C 38.067711,51.626246 38.724292,52.288449 38.724292,53.103084 C 38.724292,53.920842 38.067711,54.581795 37.2562,54.581795 C 36.445939,54.581795 35.788109,53.920842 35.788109,53.103084 z" style="fill:#ffffff;stroke:none;stroke-width:0.09284162;stroke-miterlimit:4;stroke-dasharray:none;stroke-opacity:1"/>
</g>
</g>
</svg>
