<?xml version="1.0" encoding="UTF-8" standalone="no"?>
<!DOCTYPE svg PUBLIC "-//W3C//DTD SVG 1.1 Tiny//EN" "http://www.w3.org/Graphics/SVG/1.1/DTD/svg11-tiny.dtd">
<svg xmlns="http://www.w3.org/2000/svg" baseProfile="tiny" height="100%" version="1.0" viewBox="-6 -6 72.478721 72.966597" width="100%">
<path d="M 7.7404632,51.646771 L 6.4769724,48.64598 L 6.4769724,42.486462 L 16.426963,8.8460173 L 42.802335,8.8460173 L 53.068198,40.433289 L 53.068198,48.803916 L 51.488835,51.646771 L 48.172171,52.594389 L 7.7404632,51.646771 z" style="fill:#dbdee3;fill-opacity:1;fill-rule:evenodd;stroke:none;stroke-width:1px;stroke-linecap:butt;stroke-linejoin:miter;stroke-opacity:1"/>
<g transform="matrix(1.3273285,0,0,1.3273285,5.4015503,7.9868726)">
<g>
<path d="M 36.97,24.521 C 36.952,24.46 36.896,24.257 36.896,24.257 L 29.374,1 L 13.052,1 C 13.167,0.844 13.238,0.75 13.238,0.75 L 8.309,0.75 L 8.2,1.161 L 1.331,24.314 C 1.345,24.277 1.319,24.364 1.298,24.434 C 0.88,25.224 0.664,26.262 0.664,27.534 L 0.664,30.017 C 0.664,31.42 0.919,32.422 1.306,33.145 C 1.587,33.919 2.112,34.511 3.052,34.683 C 3.512,34.847 3.97,34.901 4.355,34.901 L 33.883,34.901 C 34.274,34.901 34.738,34.845 35.203,34.676 C 36.043,34.506 36.545,33.996 36.832,33.32 C 37.275,32.589 37.574,31.537 37.574,30.017 L 37.574,27.534 C 37.575,26.302 37.362,25.3 36.97,24.521 z M 28.702,2 C 28.899,2.608 35.04,21.59 35.915,24.297 C 35.569,24.092 35.138,23.966 34.587,23.966 L 9.517,23.966 C 11.797,21.523 11.551,17.181 11.676,15.625 C 11.801,14.062 10.051,8.125 10.488,5.937 C 10.746,4.646 11.657,3.073 12.361,2 L 28.702,2 z M 36.286,30.769 C 36.286,31.655 36.202,32.278 36.059,32.717 C 35.762,33.225 35.348,33.567 34.819,33.744 C 34.743,33.749 34.665,33.752 34.587,33.752 L 3.616,33.752 C 3.553,33.752 3.492,33.75 3.431,33.747 C 2.851,33.556 2.409,33.168 2.107,32.583 C 1.988,32.152 1.919,31.57 1.919,30.769 L 1.919,27.95 C 1.919,25.195 2.722,24.967 3.616,24.967 L 34.587,24.967 C 35.482,24.967 36.286,25.196 36.286,27.95 L 36.286,30.769 z" style="fill:#223742"/>
<path d="M 31.347,27.265 L 6.38,27.265 C 6.082,27.265 5.84,28.706 5.84,29.252 C 5.84,29.796 6.082,31.237 6.38,31.237 L 31.346,31.237 C 31.643,31.237 31.883,29.796 31.883,29.252 C 31.884,28.706 31.644,27.265 31.347,27.265 z"/>
<path d="M 30.784,26.504 L 5.819,26.504 C 5.521,26.504 5.279,27.945 5.279,28.491 C 5.279,29.035 5.521,30.476 5.819,30.476 L 30.784,30.476 C 31.081,30.476 31.321,29.035 31.321,28.491 C 31.321,27.945 31.081,26.504 30.784,26.504 z"/>
<path d="M 1.949,23.883 L 1.988,24.674 L 3.533,23.966 L 1.949,23.883 z" style="fill:#223742"/>
<path d="M 36.413,30.174 L 35.212,32.216 L 33.663,33.383 L 34.206,33.924 L 36.104,33.424 L 36.723,30.258 L 36.413,30.174 z" style="fill:#223742"/>
<path d="M 35.886,23.521 C 35.868,23.46 35.814,23.257 35.814,23.257 L 28.378,0 L 7.497,0 L 0.659,23.314 C 0.673,23.277 0.647,23.364 0.626,23.434 C 0.213,24.225 0,25.263 0,26.534 L 0,29.017 C 0,30.42 0.252,31.422 0.635,32.145 C 0.913,32.919 1.431,33.511 2.361,33.683 C 2.816,33.847 3.268,33.901 3.649,33.901 L 32.837,33.901 C 33.222,33.901 33.681,33.845 34.142,33.676 C 34.972,33.506 35.468,32.996 35.751,32.32 C 36.19,31.589 36.485,30.537 36.485,29.017 L 36.485,26.534 C 36.485,25.302 36.274,24.3 35.886,23.521 z M 27.716,1 C 27.909,1.608 33.98,20.59 34.845,23.297 C 34.501,23.092 34.077,22.966 33.532,22.966 L 8.916,22.966 C 10.963,20.487 10.743,16.38 10.863,14.875 C 10.988,13.312 9.238,7.375 9.675,5.187 C 9.955,3.791 10.996,2.066 11.714,1 L 27.716,1 z M 35.21,29.769 C 35.21,30.655 35.126,31.278 34.985,31.717 C 34.692,32.225 34.284,32.567 33.76,32.744 C 33.684,32.749 33.608,32.752 33.531,32.752 L 2.917,32.752 C 2.855,32.752 2.794,32.75 2.734,32.747 C 2.161,32.556 1.724,32.168 1.424,31.583 C 1.309,31.152 1.24,30.57 1.24,29.769 L 1.24,26.95 C 1.24,24.195 2.033,23.967 2.918,23.967 L 33.533,23.967 C 34.416,23.967 35.211,24.196 35.211,26.95 L 35.211,29.769 L 35.21,29.769 z" style="fill:#5383a0"/>
</g>
</g>
</svg>
