<?xml version="1.0" encoding="UTF-8" standalone="no"?>
<!DOCTYPE svg PUBLIC "-//W3C//DTD SVG 1.1 Tiny//EN" "http://www.w3.org/Graphics/SVG/1.1/DTD/svg11-tiny.dtd">
<svg xmlns="http://www.w3.org/2000/svg" baseProfile="tiny" height="100%" version="1.0" viewBox="-6 -6 72.478721 72.966597" width="100%">
<path d="M -1.1039729,25.587271 L -0.31429107,23.218226 L 6.7928451,22.586481 L 8.2142723,9.0039537 L 24.481717,8.6880809 L 29.693617,14.689663 L 53.85788,15.795217 L 56.542798,18.638072 L 57.016607,51.488834 L 55.753116,53.384071 L 9.9515723,53.384071 L 8.2142723,51.172962 L -1.1039729,25.587271 z" style="fill:#ffeaa3;fill-opacity:1;fill-rule:evenodd;stroke:none;stroke-width:1px;stroke-linecap:butt;stroke-linejoin:miter;stroke-opacity:1"/>
<path d="M 7.4004677,9.802621 L 7.0961824,12.169125 L 10.591859,9.3945037 L 8.614725,9.150787 L 7.4004677,9.802621 z" style="fill:#685012"/>
<g transform="matrix(1.4421108,0,0,1.4421108,-1.8304835,7.9134559)">
<path d="M 40.832,7.144 C 39.641,5.651 37.513,5.534 34.696,5.534 L 23.752,5.534 C 23.204,5.471 22.788,5.31 22.442,5.099 C 21.698,4.642 21.331,3.915 20.981,3.2 C 20.698,2.62 20.405,2.2 20.126,1.89 C 19.319,1 18.61,1.053 18.508,1.066 L 8.444,1.063 C 7.323,1.063 6.591,2.015 6.555,2.899 C 6.545,3.148 6.535,6.582 6.526,10.791 L 2.846,10.791 C 1.725,10.791 0.815,11.782 0.815,13 C 0.815,13.241 0.86,13.469 0.925,13.687 L 0.901,13.697 L 6.876,30.683 L 6.889,30.678 C 7.129,31.441 7.738,32.018 8.484,32.149 C 8.588,32.168 8.695,32.176 8.804,32.176 L 11.381,32.175 L 12.346,32.175 L 34.786,32.167 L 35.804,32.173 C 36.454,32.179 37.043,32.182 37.579,32.166 L 39.136,32.165 C 39.169,32.167 39.2,32.176 39.234,32.176 C 39.689,32.176 40.103,32.008 40.441,31.735 C 40.728,31.504 40.96,31.197 41.1,30.838 C 41.349,30.491 41.537,30.068 41.667,29.55 C 41.831,28.905 41.909,28.115 41.909,27.141 L 41.909,11.464 C 41.909,9.374 41.532,8.021 40.832,7.144 z M 40.268,30.339 C 40.25,30.361 40.234,30.388 40.213,30.409 C 39.682,30.972 38.788,31.128 37.53,31.165 L 34.842,31.166 L 13.927,31.173 L 13.927,31.196 L 8.745,31.196 L 8.745,31.164 C 8.294,31.137 7.921,30.812 7.776,30.363 L 7.755,30.372 L 7.332,29.161 L 6.504,26.793 L 6.442,26.62 L 2.864,16.447 L 2.841,16.456 L 2.463,15.3 L 2.411,15.154 L 2.413,15.152 L 1.893,13.568 C 1.809,13.396 1.747,13.209 1.747,13 C 1.747,12.333 2.241,11.791 2.848,11.791 C 2.906,11.791 2.954,11.817 3.011,11.827 L 4.545,11.827 C 4.543,11.818 4.55,11.798 4.546,11.791 L 31.579,11.791 C 31.577,11.796 31.577,11.802 31.573,11.807 L 33.207,11.807 C 33.231,11.805 33.253,11.791 33.278,11.791 C 33.79,11.791 34.202,12.187 34.323,12.707 L 35.077,14.89 L 38.764,25.296 L 38.766,25.295 L 39.078,26.178 L 39.656,27.807 L 39.65,27.807 L 40.24,29.482 L 40.238,29.483 C 40.299,29.631 40.335,29.795 40.335,29.967 C 40.333,30.099 40.305,30.221 40.268,30.339 z M 40.978,27.138 C 40.978,27.661 40.953,28.117 40.904,28.521 L 35.277,12.635 C 35.117,11.591 34.285,10.79 33.279,10.79 L 7.46,10.79 C 7.469,6.482 7.48,3.171 7.487,2.942 C 7.489,2.871 7.515,2.793 7.543,2.714 C 7.591,2.577 7.672,2.444 7.791,2.331 C 7.952,2.176 8.168,2.06 8.446,2.06 L 18.567,2.06 C 18.612,2.056 19.313,2.061 20.065,3.493 C 20.096,3.552 20.127,3.597 20.157,3.659 C 20.42,4.196 20.731,4.828 21.243,5.366 C 21.78,5.931 22.538,6.392 23.702,6.528 L 34.696,6.53 C 37.784,6.53 39.534,6.716 40.366,8.159 C 40.788,8.889 40.977,9.939 40.977,11.462 L 40.977,27.138 L 40.978,27.138 z" style="fill:#685012"/>
</g>
<path d="M 53.728277,53.537515 L 56.908131,51.729108 L 57.57006,47.187901 L 53.728277,53.537515 z" style="fill:#685012"/>
<path d="M 2.1483002,22.90564 L -0.019192335,23.355578 L -1.2348917,26.131642 L 2.1483002,22.90564 z" style="fill:#685012"/>
<path d="M 55.878464,16.682932 C 54.16091,14.528418 51.093541,14.359691 47.029673,14.359691 L 31.247212,14.359691 C 30.458377,14.268838 29.857017,14.0381 29.359489,13.733815 C 28.286558,13.07477 27.755862,12.024914 27.252565,10.993805 C 26.844448,10.15738 26.423351,9.5516938 26.01956,9.1060815 C 24.855777,7.8226029 23.831878,7.8990348 23.687667,7.9192243 L 9.1728219,7.9134559 C 7.5576578,7.9134559 6.4991485,9.2877875 6.4486746,10.561171 C 6.4342535,10.920257 6.4183903,15.872465 6.4068534,21.943752 L 1.0998856,21.943752 C -0.51672056,21.943752 -1.8304835,23.371442 -1.8304835,25.129375 C -1.8304835,25.475481 -1.7670306,25.805725 -1.6718513,26.118663 L -1.706462,26.133084 L 6.9087079,50.628778 L 6.9288975,50.621567 C 7.2750041,51.720456 8.1518075,52.553996 9.2290642,52.74147 C 9.3790437,52.770312 9.5333496,52.781849 9.6890976,52.781849 L 13.406859,52.780407 L 14.798496,52.780407 L 47.160905,52.76887 L 48.628973,52.777523 C 49.566345,52.786176 50.414307,52.790502 51.190162,52.767428 L 53.434087,52.764544 C 53.481676,52.76887 53.52494,52.781849 53.573971,52.781849 C 54.230132,52.781849 54.828608,52.539575 55.317483,52.144436 C 55.727043,51.812751 56.063055,51.368581 56.26495,50.852305 C 56.625478,50.35045 56.896595,49.740438 57.082627,48.994866 C 57.319133,48.063263 57.431618,46.923995 57.431618,45.520821 L 57.431618,22.91285 C 57.431618,19.901723 56.889384,17.949105 55.878464,16.682932 z M 55.063672,50.132692 C 55.036272,50.162976 55.01464,50.203355 54.984356,50.232197 C 54.218595,51.045548 52.929348,51.270517 51.115172,51.322433 L 51.11373,51.322433 L 47.237336,51.325317 L 17.078473,51.335412 L 17.078473,51.367139 L 9.6054551,51.367139 L 9.6054551,51.320991 C 8.9565053,51.283496 8.418598,50.813368 8.2094919,50.16586 L 8.1777655,50.180281 L 7.5677526,48.433885 L 6.3722427,45.018967 L 6.284274,44.76804 L 1.1272858,30.098888 L 1.0926751,30.111867 L 0.5461151,28.446229 L 0.47256745,28.235681 C 0.47256745,28.235681 0.47545167,28.232797 0.47689378,28.232797 L -0.27444595,25.948494 C -0.39558325,25.700451 -0.48499412,25.432218 -0.48499412,25.130817 C -0.48499412,24.168929 0.22740861,23.387305 1.104212,23.387305 C 1.1878544,23.387305 1.2570757,23.423358 1.3378339,23.437779 L 3.551474,23.437779 C 3.5485898,23.4248 3.5572424,23.3974 3.551474,23.387305 L 42.537497,23.387305 C 42.534613,23.394515 42.531729,23.403168 42.527403,23.410379 L 44.88237,23.410379 C 44.918422,23.407494 44.950149,23.387305 44.984759,23.387305 C 45.72312,23.387305 46.318712,23.956939 46.493207,24.706836 L 47.580559,27.856406 L 52.899063,42.863011 L 52.901948,42.861569 L 53.350444,44.134953 L 54.182542,46.484151 L 54.176774,46.484151 L 55.027619,48.898245 L 55.024735,48.899687 C 55.111261,49.114561 55.16462,49.351068 55.16462,49.599111 C 55.160293,49.786585 55.11703,49.962523 55.063672,50.132692 z M 56.086128,45.516495 C 56.086128,46.269277 56.050076,46.926879 55.980854,47.509492 L 47.864655,24.601562 C 47.633917,23.095998 46.434081,21.939426 44.983317,21.939426 L 7.7509007,21.939426 C 7.7653218,15.726812 7.7797429,10.953425 7.7912798,10.62174 C 7.7956061,10.520792 7.8316589,10.408308 7.8705959,10.295823 C 7.9398172,10.096812 8.0580703,9.9050109 8.2282393,9.7420524 C 8.4589771,9.5214094 8.770473,9.3555667 9.1728219,9.3555667 L 23.768425,9.3555667 C 23.83332,9.3512404 24.841356,9.3570088 25.930149,11.422111 C 25.973413,11.508638 26.01956,11.572091 26.062824,11.661502 C 26.442099,12.435915 26.890595,13.347329 27.628956,14.123185 C 28.403369,14.93942 29.496489,15.604233 31.176548,15.798918 L 47.029673,15.801802 C 51.482911,15.801802 54.008047,16.071477 55.206441,18.151 C 55.815012,19.205183 56.086128,20.717958 56.086128,22.915735 L 56.086128,45.516495 z" style="fill:#ffc726;fill-opacity:1"/>
</svg>
