<?xml version="1.0" encoding="UTF-8" standalone="no"?>
<!DOCTYPE svg PUBLIC "-//W3C//DTD SVG 1.1 Tiny//EN" "http://www.w3.org/Graphics/SVG/1.1/DTD/svg11-tiny.dtd">
<svg xmlns="http://www.w3.org/2000/svg" baseProfile="tiny" height="100%" version="1.0" viewBox="-6 -6 72.478721 72.966597" width="100%">
<path d="M 7.2666542,29.851553 L 11.372999,17.532517 L 21.32299,9.6356991 L 34.431708,8.3722082 L 44.855508,13.426172 L 52.278516,26.06108 L 50.067407,43.749953 L 37.432499,51.804707 L 25.903145,52.910261 L 13.426172,46.276934 L 7.7404632,37.116626 L 7.2666542,29.851553 z" style="fill:#dbdee3;fill-opacity:1;fill-rule:evenodd;stroke:none;stroke-width:1px;stroke-linecap:butt;stroke-linejoin:miter;stroke-opacity:1"/>
<g transform="matrix(1.10618,0,0,1.10618,5.7778971,6.9802625)">
<g>
<path d="M 43.17,21.874 C 43.17,33.334 34.093,42.624 22.897,42.624 C 11.7,42.624 2.624,33.334 2.624,21.874 C 2.624,10.414 11.7,1.124 22.897,1.124 C 34.093,1.124 43.17,10.414 43.17,21.874 z" style="fill:none;stroke:#223742;stroke-width:2"/>
<path d="M 41.499,21.249 C 41.499,32.433 32.433,41.499 21.249,41.499 C 10.065,41.499 0.999,32.433 0.999,21.249 C 0.999,10.064 10.065,0.999 21.249,0.999 C 32.432,0.999 41.499,10.066 41.499,21.249 z" style="fill:none;stroke:#5383a0;stroke-width:2"/>
</g>
<g>
<g>
<path d="M 25.862,12.561 C 25.862,14.252 24.49,15.624 22.799,15.624 C 21.108,15.624 19.736,14.253 19.736,12.561 C 19.736,10.869 21.107,9.498 22.799,9.498 C 24.49,9.499 25.862,10.87 25.862,12.561 z" style="fill:#223742"/>
<path d="M 25.299,32.436 C 25.299,33.506 24.18,34.374 22.799,34.374 C 21.419,34.374 20.299,33.507 20.299,32.436 L 20.299,19.061 C 20.299,17.991 21.419,17.123 22.799,17.123 C 24.18,17.123 25.299,17.991 25.299,19.061 L 25.299,32.436 z" style="fill:#223742"/>
</g>
<g>
<path d="M 24.432,12.311 C 24.432,14.002 23.06,15.374 21.369,15.374 C 19.678,15.374 18.306,14.003 18.306,12.311 C 18.306,10.619 19.677,9.248 21.369,9.248 C 23.06,9.249 24.432,10.62 24.432,12.311 z" style="fill:#5383a0"/>
<path d="M 23.87,32.186 C 23.87,33.256 22.751,34.124 21.37,34.124 C 19.989,34.124 18.87,33.257 18.87,32.186 L 18.87,18.811 C 18.87,17.741 19.989,16.873 21.37,16.873 C 22.751,16.873 23.87,17.74 23.87,18.811 L 23.87,32.186 z" style="fill:#5383a0"/>
</g>
</g>
</g>
</svg>
