<?xml version="1.0" encoding="UTF-8" standalone="no"?>
<!DOCTYPE svg PUBLIC "-//W3C//DTD SVG 1.1 Tiny//EN" "http://www.w3.org/Graphics/SVG/1.1/DTD/svg11-tiny.dtd">
<svg xmlns="http://www.w3.org/2000/svg" baseProfile="tiny" height="100%" version="1.0" viewBox="-6 -6 72.478721 72.966597" width="100%">
<rect height="45.95948" ry="4.8960271" style="fill:#dbdee3;fill-opacity:1;stroke:none;stroke-width:0.46700001;stroke-linejoin:miter;stroke-miterlimit:4;stroke-dasharray:none;stroke-opacity:1" width="32.692825" x="13.505141" y="7.9773679"/>
<path d="M 14.146433,9.2841423 L 14.072738,12.998605 L 17.49022,8.2436087 L 14.221229,8.9871612" style="fill:#203842"/>
<path d="M 44.828975,49.178596 L 44.160218,51.853625 L 41.040817,53.265935 L 44.977466,52.967854 L 45.572528,47.692591 L 44.828975,49.178596 z" style="fill:#203842"/>
<path d="M 45.736417,48.312951 C 45.736417,54.28557 45.259048,53.722406 39.712102,53.722406 L 20.709714,53.722406 C 15.162768,53.722406 14.971381,54.28777 14.971381,48.312951 L 14.971381,15.161067 C 14.971381,9.1873484 15.163868,9.3655371 20.709714,9.3655371 L 39.711002,9.3655371 C 45.260148,9.3655371 45.737517,9.1873484 45.737517,15.161067 L 45.737517,48.312951 L 45.736417,48.312951 z" style="fill:none;stroke:#203842;stroke-width:1.09992981"/>
<path d="M 44.573791,47.247119 C 44.573791,53.220838 44.095322,52.657674 38.548376,52.657674 L 19.547089,52.657674 C 14.000143,52.657674 13.807655,53.223038 13.807655,47.247119 L 13.807655,14.095235 C 13.807655,8.1204165 14.000143,8.2997051 19.547089,8.2997051 L 38.546176,8.2997051 C 44.095322,8.2997051 44.572691,8.1204165 44.572691,14.095235 L 44.573791,47.247119 z" style="fill:none;stroke:#51839f;stroke-width:1.09992981"/>
<g transform="matrix(0.8670421,0,0,0.8670421,-0.8026248,3.9390092)">
<g style="fill:#000000;fill-opacity:1" transform="matrix(1.6176532,0,0,1.6176532,-16.752074,-28.661319)">
<path d="M 25.021688,28.971407 C 25.021688,26.732411 25.622043,25.514208 28.937431,24.933843 C 31.188297,24.539645 34.073878,24.490292 36.765795,24.933843 C 38.891717,25.284936 40.682164,26.8686 40.682164,28.971407 L 40.682164,36.358719 C 40.682164,38.525247 38.944818,40.300701 36.765795,40.300701 L 28.936807,40.300701 C 26.280498,40.300701 24.040878,42.565935 24.040878,45.126661 L 24.040878,48.671321 L 21.34896,48.671321 C 19.072481,48.671321 17.746826,47.029558 17.189575,44.732463 C 16.438662,41.646347 16.470523,39.807172 17.189575,36.851623 C 17.813046,34.273404 19.805902,32.912764 22.083006,32.912764 L 25.021063,32.912764 L 32.85255,32.912764 L 32.85255,31.926332 L 25.021688,31.926332 L 25.021688,28.971407 L 25.021688,28.971407 z" style="fill:#000000;fill-opacity:1;stroke:none;stroke-width:0.39300001;stroke-miterlimit:4;stroke-dasharray:none;stroke-opacity:1"/>
<path d="M 40.681539,52.612679 C 40.681539,54.851674 38.738036,55.984916 36.76517,56.551537 C 33.798376,57.404279 31.416944,57.273713 28.936807,56.551537 C 26.86586,55.948058 25.021063,54.715485 25.021063,52.612679 L 25.021063,45.224742 C 25.021063,43.099445 26.793393,41.28276 28.936807,41.28276 L 36.76517,41.28276 C 39.372751,41.28276 41.661099,39.030021 41.661099,36.358719 L 41.661099,32.912764 L 44.596658,32.912764 C 46.875636,32.912764 47.949529,34.60638 48.512402,36.851623 C 49.295175,39.969599 49.33016,42.301678 48.512402,44.732463 C 47.720257,47.092654 46.873137,48.671321 44.596658,48.671321 L 40.680914,48.671321 L 32.85255,48.671321 L 32.85255,49.657129 L 40.680914,49.657129 L 40.680914,52.612679 L 40.681539,52.612679 z" style="fill:#000000;fill-opacity:1;stroke:none;stroke-width:0.39300001;stroke-miterlimit:4;stroke-dasharray:none;stroke-opacity:1"/>
<path d="M 26.979559,28.481002 C 26.979559,27.662619 27.634891,27.001666 28.447651,27.001666 C 29.256663,27.001666 29.915118,27.662619 29.915118,28.481002 C 29.915118,29.296261 29.256663,29.957215 28.447651,29.957215 C 27.634891,29.957215 26.979559,29.296261 26.979559,28.481002 z" style="fill:#000000;fill-opacity:1;stroke:none;stroke-width:0.09284162;stroke-miterlimit:4;stroke-dasharray:none;stroke-opacity:1"/>
<path d="M 35.788109,53.103084 C 35.788109,52.287824 36.446563,51.626246 37.2562,51.626246 C 38.067711,51.626246 38.724292,52.288449 38.724292,53.103084 C 38.724292,53.920842 38.067711,54.581795 37.2562,54.581795 C 36.445939,54.581795 35.788109,53.920842 35.788109,53.103084 z" style="fill:#000000;fill-opacity:1;stroke:none;stroke-width:0.09284162;stroke-miterlimit:4;stroke-dasharray:none;stroke-opacity:1"/>
</g>
<g transform="matrix(1.6176532,0,0,1.6176532,-17.959724,-29.804787)">
<path d="M 25.021688,28.971407 C 25.021688,26.732411 25.622043,25.514208 28.937431,24.933843 C 31.188297,24.539645 34.073878,24.490292 36.765795,24.933843 C 38.891717,25.284936 40.682164,26.8686 40.682164,28.971407 L 40.682164,36.358719 C 40.682164,38.525247 38.944818,40.300701 36.765795,40.300701 L 28.936807,40.300701 C 26.280498,40.300701 24.040878,42.565935 24.040878,45.126661 L 24.040878,48.671321 L 21.34896,48.671321 C 19.072481,48.671321 17.746826,47.029558 17.189575,44.732463 C 16.438662,41.646347 16.470523,39.807172 17.189575,36.851623 C 17.813046,34.273404 19.805902,32.912764 22.083006,32.912764 L 25.021063,32.912764 L 32.85255,32.912764 L 32.85255,31.926332 L 25.021688,31.926332 L 25.021688,28.971407 L 25.021688,28.971407 z" style="fill:#366994;stroke:none;stroke-width:0.39300001;stroke-miterlimit:4;stroke-dasharray:none;stroke-opacity:1"/>
<path d="M 40.681539,52.612679 C 40.681539,54.851674 38.738036,55.984916 36.76517,56.551537 C 33.798376,57.404279 31.416944,57.273713 28.936807,56.551537 C 26.86586,55.948058 25.021063,54.715485 25.021063,52.612679 L 25.021063,45.224742 C 25.021063,43.099445 26.793393,41.28276 28.936807,41.28276 L 36.76517,41.28276 C 39.372751,41.28276 41.661099,39.030021 41.661099,36.358719 L 41.661099,32.912764 L 44.596658,32.912764 C 46.875636,32.912764 47.949529,34.60638 48.512402,36.851623 C 49.295175,39.969599 49.33016,42.301678 48.512402,44.732463 C 47.720257,47.092654 46.873137,48.671321 44.596658,48.671321 L 40.680914,48.671321 L 32.85255,48.671321 L 32.85255,49.657129 L 40.680914,49.657129 L 40.680914,52.612679 L 40.681539,52.612679 z" style="fill:#e7b530;stroke:none;stroke-width:0.39300001;stroke-miterlimit:4;stroke-dasharray:none;stroke-opacity:1"/>
<path d="M 26.979559,28.481002 C 26.979559,27.662619 27.634891,27.001666 28.447651,27.001666 C 29.256663,27.001666 29.915118,27.662619 29.915118,28.481002 C 29.915118,29.296261 29.256663,29.957215 28.447651,29.957215 C 27.634891,29.957215 26.979559,29.296261 26.979559,28.481002 z" style="fill:#ffffff;stroke:none;stroke-width:0.09284162;stroke-miterlimit:4;stroke-dasharray:none;stroke-opacity:1"/>
<path d="M 35.788109,53.103084 C 35.788109,52.287824 36.446563,51.626246 37.2562,51.626246 C 38.067711,51.626246 38.724292,52.288449 38.724292,53.103084 C 38.724292,53.920842 38.067711,54.581795 37.2562,54.581795 C 36.445939,54.581795 35.788109,53.920842 35.788109,53.103084 z" style="fill:#ffffff;stroke:none;stroke-width:0.09284162;stroke-miterlimit:4;stroke-dasharray:none;stroke-opacity:1"/>
</g>
</g>
</svg>
